<svg width="56" height="56" viewBox="0 0 56 56" fill="none" xmlns="http://www.w3.org/2000/svg">
<path d="M14 32.6667H32.6667V28H14V32.6667ZM14 25.6667H42V21H14V25.6667ZM14 18.6667H42V14H14V18.6667ZM4.66666 51.3333V9.33334C4.66666 8.05001 5.12399 6.95178 6.03866 6.03867C6.95332 5.12556 8.05155 4.66823 9.33332 4.66667H46.6667C47.95 4.66667 49.049 5.12401 49.9637 6.03867C50.8783 6.95334 51.3349 8.05156 51.3333 9.33334V37.3333C51.3333 38.6167 50.8768 39.7157 49.9637 40.6303C49.0505 41.545 47.9515 42.0016 46.6667 42H14L4.66666 51.3333ZM12.0167 37.3333H46.6667V9.33334H9.33332V39.9583L12.0167 37.3333Z" fill="white"/>
<g clip-path="url(#clip0_169_8)">
<rect x="12.0187" y="9.7924" width="33.1602" height="26.6415" fill="#292F3F"/>
<path d="M28.8932 34.125C29.6406 34.125 30.2896 33.8953 30.84 33.436C31.3905 32.9767 31.6648 32.4334 31.6631 31.8063C31.6631 31.1806 31.3887 30.638 30.84 30.1787C30.2913 29.7194 29.6424 29.489 28.8932 29.4875C28.1458 29.4875 27.4977 29.7179 26.949 30.1787C26.4003 30.6395 26.1251 31.182 26.1233 31.8063C26.1233 32.4319 26.3985 32.9752 26.949 33.436C27.4995 33.8968 28.1475 34.1265 28.8932 34.125ZM26.9147 27.0583H30.8717C30.8717 25.991 31.0036 25.2092 31.2674 24.7131C31.5312 24.217 32.1467 23.5633 33.114 22.7521C34.433 21.6479 35.3123 20.7558 35.752 20.0756C36.1916 19.3954 36.4115 18.5945 36.4115 17.6729C36.4115 16.0167 35.7185 14.6644 34.3327 13.6162C32.9469 12.568 31.1337 12.0431 28.8932 12.0417C27.0906 12.0417 25.5192 12.4649 24.1791 13.3115C22.839 14.158 21.9043 15.2806 21.3749 16.6792L24.9362 17.8938C25.3319 16.9736 25.8709 16.2839 26.5533 15.8245C27.2357 15.3652 28.0156 15.1348 28.8932 15.1333C29.9484 15.1333 30.8057 15.3821 31.4652 15.8798C32.1247 16.3774 32.4545 17.0487 32.4545 17.8938C32.4545 18.409 32.2786 18.8971 31.9269 19.3579C31.5751 19.8187 30.9596 20.398 30.0803 21.0958C28.6294 22.1632 27.7395 23.0009 27.4107 23.6089C27.0818 24.2169 26.9165 25.3668 26.9147 27.0583ZM13.0653 40.75C11.6144 40.75 10.3728 40.3179 9.34046 39.4537C8.30813 38.5895 7.79109 37.5494 7.78933 36.3333V9.83334C7.78933 8.61876 8.30638 7.57937 9.34046 6.71517C10.3746 5.85098 11.6162 5.41814 13.0653 5.41667H44.7211C46.172 5.41667 47.4145 5.84951 48.4486 6.71517C49.4827 7.58084 49.9988 8.62023 49.9971 9.83334V36.3333C49.9971 37.5479 49.4809 38.588 48.4486 39.4537C47.4162 40.3194 46.1738 40.7515 44.7211 40.75H13.0653ZM13.0653 36.3333H44.7211V9.83334H13.0653V36.3333Z" fill="white"/>
</g>
<defs>
<clipPath id="clip0_169_8">
<rect width="47" height="53" fill="white" transform="translate(8 1)"/>
</clipPath>
</defs>
</svg>
