<svg width="48" height="48" viewBox="0 0 48 48" fill="none" xmlns="http://www.w3.org/2000/svg">
<path d="M9.99999 28.6667H28.6667V24H9.99999V28.6667ZM9.99999 21.6667H38V17H9.99999V21.6667ZM9.99999 14.6667H38V10H9.99999V14.6667ZM0.666656 47.3333V5.33333C0.666656 4.05 1.12399 2.95178 2.03866 2.03866C2.95332 1.12555 4.05155 0.66822 5.33332 0.666664H42.6667C43.95 0.666664 45.049 1.124 45.9637 2.03866C46.8783 2.95333 47.3349 4.05155 47.3333 5.33333V33.3333C47.3333 34.6167 46.8768 35.7157 45.9637 36.6303C45.0505 37.545 43.9515 38.0016 42.6667 38H9.99999L0.666656 47.3333ZM8.01666 33.3333H42.6667V5.33333H5.33332V35.9583L8.01666 33.3333Z" fill="white"/>
</svg>
