<svg width="41" height="42" viewBox="0 0 41 42" fill="none" xmlns="http://www.w3.org/2000/svg">
<path d="M24.5833 27.25C25.1618 27.25 25.6641 27.0333 26.0901 26.6C26.5161 26.1667 26.7285 25.6542 26.7271 25.0625C26.7271 24.4722 26.5148 23.9604 26.0901 23.5271C25.6654 23.0937 25.1632 22.8764 24.5833 22.875C24.0049 22.875 23.5033 23.0924 23.0786 23.5271C22.654 23.9618 22.441 24.4736 22.4396 25.0625C22.4396 25.6528 22.6526 26.1653 23.0786 26.6C23.5047 27.0347 24.0062 27.2514 24.5833 27.25ZM23.0521 20.5833H26.1146C26.1146 19.5764 26.2167 18.8389 26.4208 18.3708C26.625 17.9028 27.1014 17.2861 27.85 16.5208C28.8708 15.4792 29.5514 14.6375 29.8917 13.9958C30.232 13.3542 30.4021 12.5986 30.4021 11.7292C30.4021 10.1667 29.8658 8.89097 28.7933 7.90208C27.7207 6.91319 26.3174 6.41805 24.5833 6.41666C23.1882 6.41666 21.9721 6.81597 20.9349 7.61458C19.8977 8.41319 19.1743 9.47222 18.7646 10.7917L21.5208 11.9375C21.8271 11.0694 22.2443 10.4187 22.7724 9.98541C23.3005 9.55208 23.9041 9.33472 24.5833 9.33333C25.4 9.33333 26.0636 9.56805 26.574 10.0375C27.0844 10.5069 27.3396 11.1403 27.3396 11.9375C27.3396 12.4236 27.2035 12.884 26.9313 13.3187C26.659 13.7535 26.1826 14.3 25.5021 14.9583C24.3792 15.9653 23.6905 16.7556 23.4359 17.3292C23.1814 17.9028 23.0535 18.9875 23.0521 20.5833ZM12.3333 33.5C11.2104 33.5 10.2495 33.0924 9.45051 32.2771C8.65154 31.4618 8.25137 30.4806 8.25001 29.3333V4.33333C8.25001 3.1875 8.65018 2.20694 9.45051 1.39166C10.2508 0.576386 11.2118 0.168053 12.3333 0.166664H36.8333C37.9563 0.166664 38.9179 0.574998 39.7182 1.39166C40.5185 2.20833 40.918 3.18889 40.9167 4.33333V29.3333C40.9167 30.4792 40.5172 31.4604 39.7182 32.2771C38.9192 33.0938 37.9576 33.5014 36.8333 33.5H12.3333ZM12.3333 29.3333H36.8333V4.33333H12.3333V29.3333ZM4.16668 41.8333C3.04376 41.8333 2.08282 41.4257 1.28384 40.6104C0.484871 39.7951 0.0847046 38.8139 0.0833435 37.6667V8.5H4.16668V37.6667H32.75V41.8333H4.16668Z" fill="white"/>
</svg>
