<svg width="79" height="70" viewBox="0 0 79 70" fill="none" xmlns="http://www.w3.org/2000/svg">
<rect x="0.744995" y="0.79895" width="77.9044" height="68.3788" rx="10" fill="#373E4E"/>
<path fill-rule="evenodd" clip-rule="evenodd" d="M49.4302 48.6671C47.5778 47.3142 48.5127 44.7552 50.2914 43.3069C53.3586 40.8093 55.2781 37.2408 55.2781 33.2789C55.2781 25.726 48.3023 19.6031 39.6972 19.6031C31.0921 19.6031 24.1163 25.726 24.1163 33.2789C24.1163 40.8318 31.0921 46.9547 39.6972 46.9547C40.06 46.9547 40.4047 47.11 40.6574 47.3704C43.2147 50.0059 47.4607 51.1096 51.3854 49.8576C51.4214 49.8462 51.4238 49.8025 51.3895 49.7875C50.6914 49.4831 50.0332 49.1075 49.4302 48.6671Z" fill="white" fill-opacity="0.55"/>
</svg>
